<?xml version="1.0" encoding="UTF-8"?>
<svg xmlns="http://www.w3.org/2000/svg" xmlns:xlink="http://www.w3.org/1999/xlink" viewBox="0 0 750 500">
  <defs>
    <style>
      .cls-1 {
        fill: none;
      }

      .cls-2 {
        fill: url(#linear-gradient-19);
      }

      .cls-2, .cls-3, .cls-4, .cls-5, .cls-6, .cls-7, .cls-8, .cls-9, .cls-10, .cls-11, .cls-12, .cls-13, .cls-14, .cls-15, .cls-16, .cls-17, .cls-18, .cls-19, .cls-20, .cls-21, .cls-22, .cls-23, .cls-24, .cls-25, .cls-26, .cls-27, .cls-28, .cls-29, .cls-30, .cls-31, .cls-32 {
        stroke: #fff;
        stroke-miterlimit: 10;
      }

      .cls-2, .cls-3, .cls-4, .cls-5, .cls-6, .cls-7, .cls-8, .cls-9, .cls-10, .cls-11, .cls-12, .cls-20, .cls-21, .cls-22 {
        mix-blend-mode: screen;
      }

      .cls-3 {
        fill: url(#linear-gradient-31);
      }

      .cls-4 {
        fill: url(#linear-gradient-32);
      }

      .cls-5 {
        fill: url(#linear-gradient-28);
      }

      .cls-6 {
        fill: url(#linear-gradient-18);
      }

      .cls-7 {
        fill: url(#linear-gradient-20);
      }

      .cls-8 {
        fill: url(#linear-gradient-23);
      }

      .cls-9 {
        fill: url(#linear-gradient-22);
      }

      .cls-10 {
        fill: url(#linear-gradient-12);
      }

      .cls-11 {
        fill: url(#linear-gradient-11);
      }

      .cls-12 {
        fill: url(#linear-gradient-24);
      }

      .cls-13 {
        fill: url(#linear-gradient-8);
      }

      .cls-14 {
        fill: url(#linear-gradient-4);
      }

      .cls-33 {
        fill: url(#radial-gradient);
      }

      .cls-15 {
        fill: url(#linear-gradient-25);
      }

      .cls-16 {
        fill: url(#linear-gradient-17);
      }

      .cls-17 {
        fill: url(#linear-gradient-29);
      }

      .cls-18 {
        fill: url(#linear-gradient-10);
      }

      .cls-19 {
        fill: url(#linear-gradient-13);
      }

      .cls-34 {
        isolation: isolate;
      }

      .cls-20 {
        fill: url(#linear-gradient-6);
      }

      .cls-21 {
        fill: url(#linear-gradient-5);
      }

      .cls-22 {
        fill: url(#linear-gradient-7);
      }

      .cls-23 {
        fill: url(#linear-gradient-2);
      }

      .cls-23, .cls-24, .cls-25, .cls-26, .cls-27, .cls-28, .cls-29, .cls-30, .cls-31, .cls-32 {
        mix-blend-mode: multiply;
      }

      .cls-24 {
        fill: url(#linear-gradient-9);
      }

      .cls-25 {
        fill: url(#linear-gradient-3);
      }

      .cls-35 {
        fill: url(#linear-gradient-21);
      }

      .cls-26 {
        fill: url(#linear-gradient);
      }

      .cls-36 {
        clip-path: url(#clippath);
      }

      .cls-27 {
        fill: url(#linear-gradient-30);
      }

      .cls-28 {
        fill: url(#linear-gradient-16);
      }

      .cls-29 {
        fill: url(#linear-gradient-15);
      }

      .cls-30 {
        fill: url(#linear-gradient-14);
      }

      .cls-31 {
        fill: url(#linear-gradient-27);
      }

      .cls-32 {
        fill: url(#linear-gradient-26);
      }
    </style>
    <radialGradient id="radial-gradient" cx="569" cy="221" fx="569" fy="221" r="692.02" gradientTransform="translate(0 74.05) scale(1 .66)" gradientUnits="userSpaceOnUse">
      <stop offset="0" stop-color="#fdfdfd"/>
      <stop offset=".55" stop-color="#f4f4f4"/>
      <stop offset="1" stop-color="#eaeaea"/>
    </radialGradient>
    <clipPath id="clippath">
      <rect class="cls-1" width="750" height="500"/>
    </clipPath>
    <linearGradient id="linear-gradient" x1="331.34" y1="98.59" x2="412.9" y2="141.72" gradientUnits="userSpaceOnUse">
      <stop offset="0" stop-color="#dfdfdf"/>
      <stop offset=".09" stop-color="#e9e9e9"/>
      <stop offset=".26" stop-color="#f5f5f5"/>
      <stop offset=".48" stop-color="#fcfcfc"/>
      <stop offset="1" stop-color="#fff"/>
    </linearGradient>
    <linearGradient id="linear-gradient-2" x1="495.98" y1="348.77" x2="577.54" y2="391.9" xlink:href="#linear-gradient"/>
    <linearGradient id="linear-gradient-3" x1="95.73" y1="175.94" x2="177.29" y2="219.07" xlink:href="#linear-gradient"/>
    <linearGradient id="linear-gradient-4" x1="149.23" y1="240.67" x2="318.2" y2="71.69" gradientUnits="userSpaceOnUse">
      <stop offset="0" stop-color="#ededed"/>
      <stop offset="1" stop-color="#fff"/>
    </linearGradient>
    <linearGradient id="linear-gradient-5" x1="203.18" y1="218.92" x2="134.54" y2="172.99" gradientUnits="userSpaceOnUse">
      <stop offset="0" stop-color="#fff"/>
      <stop offset=".08" stop-color="#fff" stop-opacity=".89"/>
      <stop offset=".34" stop-color="#fff" stop-opacity=".58"/>
      <stop offset=".57" stop-color="#fff" stop-opacity=".33"/>
      <stop offset=".77" stop-color="#fff" stop-opacity=".15"/>
      <stop offset=".91" stop-color="#fff" stop-opacity=".04"/>
      <stop offset="1" stop-color="#fff" stop-opacity="0"/>
    </linearGradient>
    <linearGradient id="linear-gradient-6" x1="-91.7" y1="-16.87" x2="-176.19" y2="67.62" gradientTransform="translate(144.89 206.8) rotate(-180)" xlink:href="#linear-gradient-5"/>
    <linearGradient id="linear-gradient-7" x1="250.9" y1="146.78" x2="211.68" y2="59.04" xlink:href="#linear-gradient-5"/>
    <linearGradient id="linear-gradient-8" x1="149.23" y1="597.52" x2="318.2" y2="428.54" xlink:href="#linear-gradient-4"/>
    <linearGradient id="linear-gradient-9" x1="220.94" y1="432.33" x2="220.94" y2="522.33" xlink:href="#linear-gradient"/>
    <linearGradient id="linear-gradient-10" x1="252.24" y1="62.24" x2="421.22" y2="-106.73" xlink:href="#linear-gradient-4"/>
    <linearGradient id="linear-gradient-11" x1="272.44" y1="-14.11" x2="272.44" y2="79.31" xlink:href="#linear-gradient-5"/>
    <linearGradient id="linear-gradient-12" x1="414.74" y1="41.42" x2="314.62" y2="-5.02" gradientUnits="userSpaceOnUse">
      <stop offset="0" stop-color="#fff"/>
      <stop offset=".11" stop-color="#fff" stop-opacity=".89"/>
      <stop offset="1" stop-color="#fff" stop-opacity="0"/>
    </linearGradient>
    <linearGradient id="linear-gradient-13" x1="-5.29" y1="151.45" x2="163.68" y2="-17.52" xlink:href="#linear-gradient-4"/>
    <linearGradient id="linear-gradient-14" x1="74.53" y1="31.73" x2="-9.96" y2="116.21" gradientTransform="translate(-53.53 114.64) rotate(-60)" xlink:href="#linear-gradient"/>
    <linearGradient id="linear-gradient-15" x1="146.67" y1="126.71" x2="81.33" y2="75.37" xlink:href="#linear-gradient"/>
    <linearGradient id="linear-gradient-16" x1="33.37" y1="42.37" x2="-51.12" y2="126.86" gradientTransform="translate(125.97 -11.24) rotate(60)" xlink:href="#linear-gradient"/>
    <linearGradient id="linear-gradient-17" x1="406.76" y1="329.88" x2="575.74" y2="160.91" gradientUnits="userSpaceOnUse">
      <stop offset="0" stop-color="#f2f2f2"/>
      <stop offset="1" stop-color="#fff"/>
    </linearGradient>
    <linearGradient id="linear-gradient-18" x1="424.98" y1="220.54" x2="430.4" y2="323.5" xlink:href="#linear-gradient-5"/>
    <linearGradient id="linear-gradient-19" x1="-349.23" y1="-106.08" x2="-433.72" y2="-21.59" gradientTransform="translate(144.89 206.8) rotate(-180)" xlink:href="#linear-gradient-5"/>
    <linearGradient id="linear-gradient-20" x1="509.21" y1="162.21" x2="432.57" y2="231.88" xlink:href="#linear-gradient-5"/>
    <linearGradient id="linear-gradient-21" x1="713.27" y1="-49.55" x2="501.27" y2="158.45" gradientUnits="userSpaceOnUse">
      <stop offset="0" stop-color="#fff"/>
      <stop offset=".62" stop-color="#fafafa"/>
      <stop offset="1" stop-color="#f4f4f4"/>
    </linearGradient>
    <linearGradient id="linear-gradient-22" x1="430.7" y1="171.3" x2="571.51" y2="81.39" xlink:href="#linear-gradient-12"/>
    <linearGradient id="linear-gradient-23" x1="665.95" y1="132.85" x2="605.95" y2="58.85" gradientUnits="userSpaceOnUse">
      <stop offset="0" stop-color="#fff"/>
      <stop offset=".1" stop-color="#fff" stop-opacity=".98"/>
      <stop offset=".23" stop-color="#fff" stop-opacity=".92"/>
      <stop offset=".36" stop-color="#fff" stop-opacity=".83"/>
      <stop offset=".5" stop-color="#fff" stop-opacity=".69"/>
      <stop offset=".65" stop-color="#fff" stop-opacity=".52"/>
      <stop offset=".8" stop-color="#fff" stop-opacity=".31"/>
      <stop offset=".96" stop-color="#fff" stop-opacity=".07"/>
      <stop offset="1" stop-color="#fff" stop-opacity="0"/>
    </linearGradient>
    <linearGradient id="linear-gradient-24" x1="581.48" y1="-10.42" x2="581.48" y2="73.24" xlink:href="#linear-gradient-23"/>
    <linearGradient id="linear-gradient-25" x1="46.22" y1="419.09" x2="215.19" y2="250.12" xlink:href="#linear-gradient-4"/>
    <linearGradient id="linear-gradient-26" x1="-131.5" y1="210.16" x2="-215.99" y2="294.64" gradientTransform="translate(-53.53 114.64) rotate(-60)" xlink:href="#linear-gradient"/>
    <linearGradient id="linear-gradient-27" x1="11.31" y1="-195.29" x2="-73.17" y2="-110.8" gradientTransform="translate(144.89 206.8) rotate(-180)" xlink:href="#linear-gradient"/>
    <linearGradient id="linear-gradient-28" x1="290.9" y1="131.58" x2="206.41" y2="216.07" gradientTransform="translate(125.97 -11.24) rotate(60)" xlink:href="#linear-gradient-5"/>
    <linearGradient id="linear-gradient-29" x1="252.24" y1="419.09" x2="421.22" y2="250.12" xlink:href="#linear-gradient-4"/>
    <linearGradient id="linear-gradient-30" x1="-28.48" y1="388.58" x2="-112.97" y2="473.07" gradientTransform="translate(-53.53 114.64) rotate(-60)" xlink:href="#linear-gradient"/>
    <linearGradient id="linear-gradient-31" x1="-194.71" y1="-195.29" x2="-279.2" y2="-110.8" gradientTransform="translate(144.89 206.8) rotate(-180)" xlink:href="#linear-gradient-5"/>
    <linearGradient id="linear-gradient-32" x1="393.92" y1="-46.84" x2="309.43" y2="37.65" gradientTransform="translate(125.97 -11.24) rotate(60)" xlink:href="#linear-gradient-5"/>
  </defs>
  <g class="cls-34">
    <g id="Capa_2" data-name="Capa 2">
      <g id="OBJECTS">
        <g>
          <rect class="cls-33" width="750" height="500"/>
          <g class="cls-36">
            <g>
              <polygon class="cls-26" points="468.64 -81.51 272.44 258.18 323.95 347.39 519.12 9.35 468.64 -81.51"/>
              <polygon class="cls-23" points="633.28 168.68 437.08 508.36 488.59 597.57 683.76 259.53 633.28 168.68"/>
              <polygon class="cls-25" points="220.94 -9.46 25.77 328.58 77.27 417.79 272.44 79.75 220.94 -9.46"/>
              <g>
                <polygon class="cls-14" points="272.44 79.75 169.43 79.75 117.92 168.96 169.43 258.18 272.44 258.18 323.95 168.96 272.44 79.75"/>
                <polygon class="cls-21" points="220.94 168.96 117.92 168.96 169.43 258.18 220.94 168.96"/>
                <polygon class="cls-20" points="220.94 168.96 272.44 258.18 323.95 168.96 220.94 168.96"/>
                <polygon class="cls-22" points="220.94 168.96 272.44 79.75 169.43 79.75 220.94 168.96"/>
              </g>
              <g>
                <polygon class="cls-13" points="272.44 436.6 169.43 436.6 117.92 525.81 169.43 615.02 272.44 615.02 323.95 525.81 272.44 436.6"/>
                <polygon class="cls-24" points="220.94 525.81 272.44 436.6 169.43 436.6 220.94 525.81"/>
              </g>
              <g>
                <polygon class="cls-18" points="375.45 -98.67 272.44 -98.67 220.94 -9.46 272.44 79.75 375.45 79.75 426.96 -9.46 375.45 -98.67"/>
                <polygon class="cls-11" points="323.95 -9.46 220.94 -9.46 272.44 79.75 323.95 -9.46"/>
                <polygon class="cls-10" points="323.95 -9.46 375.45 79.75 426.96 -9.46 323.95 -9.46"/>
              </g>
              <g>
                <polygon class="cls-19" points="117.92 -9.46 14.91 -9.46 -36.6 79.75 14.91 168.96 117.92 168.96 169.43 79.75 117.92 -9.46"/>
                <polygon class="cls-30" points="66.42 79.75 -36.6 79.75 14.91 168.96 66.42 79.75"/>
                <polygon class="cls-29" points="66.42 79.75 117.92 168.96 169.43 79.75 66.42 79.75"/>
                <polygon class="cls-28" points="66.42 79.75 117.92 -9.46 14.91 -9.46 66.42 79.75"/>
              </g>
              <g>
                <polygon class="cls-16" points="529.98 168.96 426.96 168.96 375.45 258.18 426.96 347.39 529.98 347.39 581.48 258.18 529.98 168.96"/>
                <polygon class="cls-6" points="478.47 258.18 375.45 258.18 426.96 347.39 478.47 258.18"/>
                <polygon class="cls-2" points="478.47 258.18 529.98 347.39 581.48 258.18 478.47 258.18"/>
                <polygon class="cls-7" points="478.47 258.18 529.98 168.96 426.96 168.96 478.47 258.18"/>
              </g>
              <g>
                <polygon class="cls-35" points="632.99 -9.46 529.98 -9.46 478.47 79.75 529.98 168.96 632.99 168.96 684.49 79.75 632.99 -9.46"/>
                <polygon class="cls-9" points="581.48 79.75 478.47 79.75 529.98 168.96 581.48 79.75"/>
                <polygon class="cls-8" points="684.81 79.75 581.8 79.75 633.31 168.96 684.81 79.75"/>
                <polygon class="cls-12" points="581.48 79.75 632.99 -9.46 529.98 -9.46 581.48 79.75"/>
              </g>
              <g>
                <polygon class="cls-15" points="169.43 258.18 66.42 258.18 14.91 347.39 66.42 436.6 169.43 436.6 220.94 347.39 169.43 258.18"/>
                <polygon class="cls-32" points="117.92 347.39 14.91 347.39 66.42 436.6 117.92 347.39"/>
                <polygon class="cls-31" points="117.92 347.39 169.43 436.6 220.94 347.39 117.92 347.39"/>
                <polygon class="cls-5" points="117.92 347.39 169.43 258.18 66.42 258.18 117.92 347.39"/>
              </g>
              <g>
                <polygon class="cls-17" points="375.45 258.18 272.44 258.18 220.94 347.39 272.44 436.6 375.45 436.6 426.96 347.39 375.45 258.18"/>
                <polygon class="cls-27" points="323.95 347.39 220.94 347.39 272.44 436.6 323.95 347.39"/>
                <polygon class="cls-3" points="323.95 347.39 375.45 436.6 426.96 347.39 323.95 347.39"/>
                <polygon class="cls-4" points="323.95 347.39 375.45 258.18 272.44 258.18 323.95 347.39"/>
              </g>
            </g>
          </g>
        </g>
      </g>
    </g>
  </g>
</svg>