<?xml version="1.0" encoding="UTF-8"?>
<svg id="Capa_2" data-name="Capa 2" xmlns="http://www.w3.org/2000/svg" xmlns:xlink="http://www.w3.org/1999/xlink" viewBox="0 0 63.82 63.82">
  <defs>
    <style>
      .cls-1 {
        fill: none;
      }

      .cls-2 {
        fill: url(#Degradado_sin_nombre_74);
      }
    </style>
    <linearGradient id="Degradado_sin_nombre_74" data-name="Degradado sin nombre 74" x1="3.39" y1="3.39" x2="50" y2="50" gradientUnits="userSpaceOnUse">
      <stop offset="0" stop-color="#ab1214"/>
      <stop offset="1" stop-color="#ee495e"/>
    </linearGradient>
  </defs>
  <g id="Capa_1-2" data-name="Capa 1">
    <g>
      <path class="cls-1" d="M8.65,31.91c0-4,1.04-7.93,2.98-11.38h-4.66c-1.59,3.47-2.48,7.32-2.48,11.38,0,15.12,12.3,27.43,27.43,27.43,5.32,0,10.29-1.53,14.5-4.16h-14.5c-12.83,0-23.26-10.43-23.26-23.26Z"/>
      <path class="cls-1" d="M47.78,31.91c0,4.46-1.85,8.5-4.83,11.38h5.47c2.29-3.33,3.55-7.32,3.55-11.38,0-11.06-9-20.06-20.06-20.06H13.23c-1.36,1.27-2.59,2.67-3.67,4.19h22.35c8.75,0,15.87,7.12,15.87,15.87Z"/>
      <path class="cls-1" d="M16.04,31.91c0-4.46,1.85-8.5,4.83-11.38h-5.47c-2.29,3.33-3.55,7.32-3.55,11.38,0,11.06,9,20.06,20.06,20.06h18.68c1.36-1.27,2.59-2.67,3.67-4.19h-22.35c-8.75,0-15.87-7.12-15.87-15.87Z"/>
      <path class="cls-1" d="M31.91,4.48c-5.32,0-10.29,1.53-14.5,4.16h14.5c12.83,0,23.26,10.43,23.26,23.26,0,4-1.04,7.93-2.98,11.38h4.66c1.59-3.47,2.48-7.32,2.48-11.38,0-15.12-12.3-27.43-27.43-27.43Z"/>
      <path class="cls-2" d="M31.91,0C14.32,0,0,14.32,0,31.91s14.32,31.91,31.91,31.91,31.91-14.32,31.91-31.91S49.51,0,31.91,0ZM13.23,11.85h18.68c11.06,0,20.06,9,20.06,20.06,0,4.07-1.25,8.05-3.55,11.38h-5.47c2.98-2.89,4.83-6.92,4.83-11.38,0-8.75-7.12-15.87-15.87-15.87H9.56c1.08-1.52,2.31-2.92,3.67-4.19ZM31.91,45.07l-11.4-6.58v-13.16l11.4-6.58,11.4,6.58v13.16l-11.4,6.58ZM31.91,59.34c-15.12,0-27.43-12.3-27.43-27.43,0-4.06.89-7.91,2.48-11.38h4.66c-1.94,3.46-2.98,7.39-2.98,11.38,0,12.83,10.43,23.26,23.26,23.26h14.5c-4.21,2.64-9.18,4.16-14.5,4.16ZM50.59,51.97h-18.68c-11.06,0-20.06-9-20.06-20.06,0-4.07,1.25-8.05,3.55-11.38h5.47c-2.98,2.89-4.83,6.92-4.83,11.38,0,8.75,7.12,15.87,15.87,15.87h22.35c-1.08,1.52-2.31,2.92-3.67,4.19ZM52.19,43.3c1.94-3.46,2.98-7.39,2.98-11.38,0-12.83-10.43-23.26-23.26-23.26h-14.5c4.21-2.64,9.18-4.16,14.5-4.16,15.12,0,27.43,12.3,27.43,27.43,0,4.06-.89,7.91-2.48,11.38h-4.66Z"/>
    </g>
  </g>
</svg>